# xmcd CD database file
#
# Track frame offsets:
#	150
#	17773
#	30919
#	46272
#	61428
#	79520
#	95194
#	114035
#	131930
#	150236
#	166375
#	181633
#	197808
#	213247
#	229959
#
# Disc length: 3350 seconds
#
# Revision: 0
# Processed by: cddbd v1.5.2PL0 Copyright (c) Steve Scherf et al.
# Submitted via: CDex 1.70beta2
#
DISCID=b70d140f
DTITLE=Taylor Swift - Taylor Swift  Deluxe
DYEAR=2007
DGENRE=Country
TTITLE0=Tim McGraw
TTITLE1=Picture To Burn
TTITLE2=TearDrops On My Guitar ( Radio Single Version)
TTITLE3=A Place In This World
TTITLE4=Cold As You Are
TTITLE5=The Outside
TTITLE6=Tied Together With A Smile
TTITLE7=Stay Beautiful
TTITLE8=Should've Said No
TTITLE9=Mary's Song (Oh My My My)
TTITLE10=Our Song (Radio Single Version)
TTITLE11=I'm Only Me When I'm With You
TTITLE12=Invisible
TTITLE13=A Perfectly Good Heart
TTITLE14=Taylor's 1st Phone Call With Tim McGraw
EXTD=YEAR: 2007
EXTT0=
EXTT1=
EXTT2=
EXTT3=
EXTT4=
EXTT5=
EXTT6=
EXTT7=
EXTT8=
EXTT9=
EXTT10=
EXTT11=
EXTT12=
EXTT13=
EXTT14=
PLAYORDER=
